<?xml version="1.0" encoding="UTF-8"?>
<svg xmlns="http://www.w3.org/2000/svg" xmlns:xlink="http://www.w3.org/1999/xlink" width="42px" height="42px" viewBox="0 0 42 42" version="1.1">
<g id="surface1">
<path style="fill:none;stroke-width:2;stroke-linecap:butt;stroke-linejoin:miter;stroke:rgb(0%,0%,0%);stroke-opacity:0.301961;stroke-miterlimit:4;" d="M 25.888765 2.872768 C 39.120908 2.872768 49.813988 13.401414 49.813988 26.348214 C 49.813988 39.290179 39.120908 49.818824 25.888765 49.818824 C 12.656622 49.818824 1.963542 39.290179 1.963542 26.348214 C 1.963542 13.401414 12.656622 2.872768 25.888765 2.872768 Z M 25.888765 2.872768 " transform="matrix(0.807692,0,0,0.807692,0,0)"/>
<path style=" stroke:none;fill-rule:evenodd;fill:rgb(38.431373%,81.960784%,72.941176%);fill-opacity:1;" d="M 21.195312 13.242188 C 25.574219 13.242188 29.125 16.792969 29.125 21.171875 C 29.125 25.554688 25.574219 29.105469 21.195312 29.105469 C 16.8125 29.105469 13.261719 25.554688 13.261719 21.171875 C 13.261719 16.792969 16.8125 13.242188 21.195312 13.242188 Z M 21.195312 13.242188 "/>
</g>
</svg>
